# xmcd
#
# Track frame offsets: 
#        150
#        16055
#        40370
#        65893
#        82985
#
# Disc length: 1307 seconds
#
# Revision: 7
# Processed by: cddbd v1.5.2PL0 Copyright (c) Steve Scherf et al.
# Submitted via: ExactAudioCopy v1.0b3
#
DISCID=38051905
DTITLE=Rednex - Old Pop In An Oak
DYEAR=1995
DGENRE=Country
TTITLE0=Old Pop In An Oak (Original Radio Edit)
TTITLE1=Old Pop In An Oak (Doug's Klub Mix)
TTITLE2=Old Pop In An Oak (Original Extended Mix)
TTITLE3=Old Pop In An Oak (Doug's Phantom Dub Mix)
TTITLE4=Old Pop In An Oak (Original Instrumental)
EXTD=
EXTT0=
EXTT1=
EXTT2=
EXTT3=
EXTT4=
PLAYORDER=
